<svg width="267" height="267" viewBox="0 0 267 267" fill="none" xmlns="http://www.w3.org/2000/svg">
<rect width="266.847" height="266.847" rx="66.7228" fill="#DEFF0A"/>
<rect x="0.0556641" width="266.945" height="266.945" rx="66.7468" fill="#DEFF0A"/>
<g clip-path="url(#clip0_10_43178)">
<path d="M53.1423 129.708C53.1423 124.921 49.2605 121.04 44.4741 121.04C39.6876 121.04 35.8091 124.921 35.8091 129.708C35.8091 134.494 39.6909 138.376 44.4774 138.376C49.2638 138.376 53.1456 134.494 53.1456 129.708H53.1423Z" fill="#1A1A1A"/>
<path d="M142.152 219.19C142.152 214.404 138.271 210.525 133.484 210.525C128.698 210.525 124.816 214.407 124.816 219.19C124.816 223.974 128.698 227.859 133.484 227.859C138.271 227.859 142.152 223.977 142.152 219.19Z" fill="#1A1A1A"/>
<path d="M231.633 129.941C231.633 125.154 227.754 121.272 222.968 121.272C218.181 121.272 214.299 125.154 214.299 129.941C214.299 134.727 218.181 138.609 222.968 138.609C227.754 138.609 231.633 134.727 231.633 129.941Z" fill="#1A1A1A"/>
<path d="M142.38 40.4627C142.38 35.6762 138.498 31.7944 133.712 31.7944C128.925 31.7944 125.043 35.6762 125.043 40.4627C125.043 45.2492 128.925 49.131 133.712 49.131C138.498 49.131 142.38 45.2492 142.38 40.4627Z" fill="#1A1A1A"/>
<path d="M152.878 99.9593C152.878 89.3765 144.298 80.8003 133.719 80.8003C123.139 80.8003 114.56 89.3797 114.56 99.9593C114.56 110.539 123.139 119.118 133.719 119.118C144.298 119.118 152.878 110.539 152.878 99.9593Z" fill="#1A1A1A"/>
<path d="M152.65 159.692C152.65 149.109 144.07 140.533 133.491 140.533C122.911 140.533 114.332 149.113 114.332 159.692C114.332 170.272 122.911 178.851 133.491 178.851C144.07 178.851 152.65 170.272 152.65 159.692Z" fill="#1A1A1A"/>
<path d="M123.179 129.707C123.179 119.098 114.58 110.499 103.971 110.499C93.3619 110.499 84.7627 119.098 84.7627 129.707C84.7627 140.316 93.3619 148.915 103.971 148.915C114.58 148.915 123.179 140.316 123.179 129.707Z" fill="#1A1A1A"/>
<path d="M182.633 129.945C182.633 119.362 174.054 110.786 163.474 110.786C152.894 110.786 144.315 119.365 144.315 129.945C144.315 140.524 152.894 149.104 163.474 149.104C174.054 149.104 182.633 140.524 182.633 129.945Z" fill="#1A1A1A"/>
<path d="M87.4407 159.46C87.4407 152.032 81.4206 146.008 73.9926 146.008C66.5645 146.008 60.5444 152.032 60.5444 159.46C60.5444 166.888 66.5645 172.908 73.9926 172.908C81.4206 172.908 87.4407 166.888 87.4407 159.46Z" fill="#1A1A1A"/>
<path d="M87.6688 99.9589C87.6688 92.5308 81.6487 86.5107 74.2206 86.5107C66.7925 86.5107 60.7725 92.5308 60.7725 99.9589C60.7725 107.387 66.7925 113.407 74.2206 113.407C81.6487 113.407 87.6688 107.387 87.6688 99.9589Z" fill="#1A1A1A"/>
<path d="M117.27 189.207C117.27 181.73 111.211 175.67 103.733 175.67C96.2559 175.67 90.1963 181.73 90.1963 189.207C90.1963 196.685 96.2559 202.744 103.733 202.744C111.211 202.744 117.27 196.685 117.27 189.207Z" fill="#1A1A1A"/>
<path d="M176.679 189.443C176.679 182.015 170.659 175.991 163.231 175.991C155.803 175.991 149.779 182.015 149.779 189.443C149.779 196.871 155.803 202.891 163.231 202.891C170.659 202.891 176.679 196.871 176.679 189.443Z" fill="#1A1A1A"/>
<path d="M117.424 70.2113C117.424 62.7833 111.404 56.7632 103.975 56.7632C96.5474 56.7632 90.5273 62.7833 90.5273 70.2113C90.5273 77.6394 96.5474 83.6595 103.975 83.6595C111.404 83.6595 117.424 77.6394 117.424 70.2113Z" fill="#1A1A1A"/>
<path d="M176.917 70.4442C176.917 63.0162 170.897 56.9961 163.469 56.9961C156.041 56.9961 150.018 63.0162 150.018 70.4442C150.018 77.8723 156.041 83.8924 163.469 83.8924C170.897 83.8924 176.917 77.8723 176.917 70.4442Z" fill="#1A1A1A"/>
<path d="M206.431 159.695C206.431 152.267 200.411 146.247 192.983 146.247C185.555 146.247 179.535 152.267 179.535 159.695C179.535 167.123 185.555 173.146 192.983 173.146C200.411 173.146 206.431 167.123 206.431 159.695Z" fill="#1A1A1A"/>
<path d="M206.662 100.194C206.662 92.7662 200.642 86.7461 193.214 86.7461C185.786 86.7461 179.762 92.7662 179.762 100.194C179.762 107.622 185.786 113.642 193.214 113.642C200.642 113.642 206.662 107.622 206.662 100.194Z" fill="#1A1A1A"/>
</g>
<defs>
<clipPath id="clip0_10_43178">
<rect width="195.827" height="196.064" fill="white" transform="translate(35.8096 31.7944)"/>
</clipPath>
</defs>
</svg>
