<svg width="139" height="40" viewBox="0 0 139 40" fill="none" xmlns="http://www.w3.org/2000/svg">
<path d="M121.674 40.0033L124.832 32.4565L116.297 12.1133H121.195L127.159 27.0407H127.551L133.436 12.1133H138.138L126.485 40.0033H121.674Z" fill="black"/>
<path d="M39.2486 32.488V8.46914H30.3906V4.28516H51.0201C52.1737 4.28516 53.1124 5.22362 53.1124 6.37715C53.1124 7.53067 52.1737 8.46914 51.0201 8.46914H43.9122V32.488H39.2486Z" fill="black"/>
<path d="M47.5 22.2981C47.5 15.1521 52.0072 11.5547 58.1276 11.5547C64.1307 11.5547 68.1588 15.4258 68.1588 21.907C68.1588 22.3372 68.1198 23.0509 68.0415 23.4907H51.9583C52.2712 27.4401 54.8035 29.6103 58.0787 29.6103C60.0928 29.6103 61.9895 28.7012 62.8988 27.0393H67.3278C66.1447 30.7932 62.5859 33.0415 58.1276 33.0415C51.5673 33.0415 47.5 28.9749 47.5 22.2981ZM63.5735 20.3626C63.2214 16.8824 60.8457 14.9468 57.9223 14.9468C55.0772 14.9468 52.5449 16.8433 52.0757 20.3626H63.5735Z" fill="black"/>
<path d="M71.6328 32.4942V21.2717C71.6328 14.5558 75.5045 11.5547 81.7423 11.5547C88.0191 11.5547 91.8516 14.3603 91.8516 21.0762V32.4942H87.3835V21.0762C87.3835 17.1268 85.2913 15.3476 81.7325 15.3476C78.1736 15.3476 76.0814 17.2832 76.0814 21.2717V32.4942H71.6328Z" fill="black"/>
<path d="M95.7266 6.49695C95.7266 4.91328 96.8705 3.76953 98.4544 3.76953C99.9604 3.76953 101.182 4.99148 101.182 6.49695C101.182 8.0806 100.038 9.22435 98.4544 9.22435C96.9389 9.22435 95.7168 8.0024 95.7266 6.49695ZM96.1959 32.4905V14.337C96.1959 13.1053 97.1931 12.1081 98.425 12.1081C99.6574 12.1081 100.654 13.1053 100.654 14.337V32.4905H96.1959Z" fill="black"/>
<path d="M105.219 32.4895V15.9002V12.1071V6.65234H109.687V12.1071H113.128C114.175 12.1071 115.025 12.9577 115.025 14.0036C115.025 15.0496 114.175 15.9002 113.128 15.9002H109.687V32.4895H105.219Z" fill="black"/>
<path d="M11.7004 28.5234C10.2045 28.5234 8.99219 29.7357 8.99219 31.2313V35.9921L14.4087 39.1399V31.2313C14.4087 29.7357 13.1963 28.5234 11.7004 28.5234Z" fill="black"/>
<path d="M16.6796 4.07157L13.0621 0.542549C12.319 -0.18085 11.1262 -0.18085 10.3832 0.542549L6.76569 4.07157C4.87873 5.90939 3.82281 8.42174 3.82281 11.0514V19.3314L1.41766 20.8564C0.537735 21.4136 0 22.3912 0 23.4371V30.7591L19.6322 19.3411V11.0612C19.6225 8.42174 18.5665 5.90939 16.6796 4.07157ZM11.7031 13.7495C10.0899 13.7495 8.77975 12.4395 8.77975 10.8265C8.77975 9.21357 10.0899 7.90362 11.7031 7.90362C13.3163 7.90362 14.6264 9.21357 14.6264 10.8265C14.6264 12.4493 13.3163 13.7495 11.7031 13.7495Z" fill="black"/>
<path d="M19.625 28.5251L23.7314 30.9103V23.7349C23.7314 22.6107 23.1545 21.5746 22.2062 20.9684L19.625 19.3359V28.5251Z" fill="black"/>
</svg>
