<?xml version="1.0" encoding="UTF-8"?>
<svg id="Livello_2" data-name="Livello 2" xmlns="http://www.w3.org/2000/svg" viewBox="0 0 1209.57 274.62">
  <defs>
    <style>
      .cls-1 {
        fill: #0071f1;
      }

      .cls-2 {
        fill: #738091;
      }

      .cls-3 {
        fill: #0c121e;
      }
    </style>
  </defs>
  <g id="Livello_1-2" data-name="Livello 1">
    <g>
      <path class="cls-1" d="m75.22,70.7l-14.24-24.67c-1.75-3.03-4.98-4.89-8.47-4.89h-28.48c-3.5,0-6.73,1.86-8.47,4.89L1.31,70.7c-1.75,3.03-1.75,6.76,0,9.78l14.24,24.67c1.75,3.03,4.98,4.89,8.47,4.89h28.48c3.5,0,6.73-1.86,8.47-4.89l14.24-24.67c1.75-3.03,1.75-6.76,0-9.78Z"/>
      <path class="cls-1" d="m146.57,29.56l-14.24-24.67c-1.75-3.03-4.98-4.89-8.47-4.89h-28.48c-3.5,0-6.73,1.86-8.47,4.89l-14.24,24.67c-1.75,3.03-1.75,6.76,0,9.78l14.24,24.67c1.75,3.03,4.98,4.89,8.47,4.89h28.48c3.5,0,6.73-1.86,8.47-4.89l14.24-24.67c1.75-3.03,1.75-6.76,0-9.78Z"/>
      <path class="cls-1" d="m146.57,111.85l-14.24-24.67c-1.75-3.03-4.98-4.89-8.47-4.89h-28.48c-3.5,0-6.73,1.86-8.47,4.89l-14.24,24.67c-1.75,3.03-1.75,6.76,0,9.78l14.24,24.67c1.75,3.03,4.98,4.89,8.47,4.89h28.48c3.5,0,6.73-1.86,8.47-4.89l14.24-24.67c1.75-3.03,1.75-6.76,0-9.78Z"/>
      <path class="cls-1" d="m75.22,152.99l-14.24-24.67c-1.75-3.03-4.98-4.89-8.47-4.89h-28.48c-3.5,0-6.73,1.86-8.47,4.89l-14.24,24.67c-1.75,3.03-1.75,6.76,0,9.78l14.24,24.67c1.75,3.03,4.98,4.89,8.47,4.89h28.48c3.5,0,6.73-1.86,8.47-4.89l14.24-24.67c1.75-3.03,1.75-6.76,0-9.78Z"/>
      <path class="cls-1" d="m75.22,235.28l-14.24-24.67c-1.75-3.03-4.98-4.89-8.47-4.89h-28.48c-3.5,0-6.73,1.86-8.47,4.89l-14.24,24.67c-1.75,3.03-1.75,6.76,0,9.78l14.24,24.67c1.75,3.03,4.98,4.89,8.47,4.89h28.48c3.5,0,6.73-1.86,8.47-4.89l14.24-24.67c1.75-3.03,1.75-6.76,0-9.78Z"/>
    </g>
    <path class="cls-3" d="m1090.81,39.08h0s0,0,0,0c0,0,0,0,0,0h0c-62.41,0-95.46,36.06-95.59,104.26h0v.39h0c.13,68.2,33.18,104.26,95.59,104.26h0s0,0,0,0c0,0,0,0,0,0h0c62.41,0,95.46-36.06,95.59-104.26v-.39c-.13-68.2-33.18-104.26-95.59-104.26Zm0,174.47h0s0,0,0,0,0,0,0,0h0c-38.86,0-57.74-22.94-57.74-70.15s18.89-69.86,57.74-69.86h0s0,0,0,0,0,0,0,0h0c38.86,0,57.74,22.94,57.74,70.15s-18.89,69.86-57.74,69.86Z"/>
    <path class="cls-3" d="m483.97,211.62h-69.53V58.01c0-10.45-8.47-18.93-18.93-18.93s-18.93,8.47-18.93,18.93v170.84c0,9.51,7.71,17.23,17.23,17.23h90.16c9.51,0,17.23-7.71,17.23-17.23h0c0-9.51-7.71-17.23-17.23-17.23Z"/>
    <path class="cls-3" d="m714.14,221.86l-70.76-172.11c-2.66-6.46-8.95-10.67-15.93-10.67h-14.76c-6.98,0-13.27,4.21-15.93,10.67l-70.97,172.11c-3.98,9.67.64,20.73,10.31,24.71,9.67,3.97,20.72-.64,24.7-10.3l59.27-143.64,59.06,143.64c3.98,9.66,15.03,14.28,24.7,10.3,9.67-3.98,14.29-15.04,10.31-24.71Z"/>
    <path class="cls-3" d="m326.07,75.59c9.51,0,17.23-7.71,17.23-17.23s-7.71-17.23-17.23-17.23h-94.2c-9.51,0-17.23,7.71-17.23,17.23v170.83c0,10.45,8.47,18.93,18.93,18.93s18.93-8.47,18.93-18.93v-68.43h57.69c9.51,0,17.23-7.71,17.23-17.23s-7.71-17.23-17.23-17.23h-57.69v-50.72h73.57Z"/>
    <path class="cls-3" d="m949.15,39.08h0c-10.45,0-18.93,8.47-18.93,18.93v171.18c0,10.45,8.47,18.93,18.93,18.93s18.93-8.47,18.93-18.93v-30.99h0V58.01c0-10.45-8.47-18.93-18.93-18.93Z"/>
    <path class="cls-3" d="m879.7,211.3h-86.89l97.1-142.89c7.84-11.54-.34-27.22-14.2-27.22h-115.76c-9.51,0-17.23,7.79-17.23,17.39s7.71,17.39,17.23,17.39h78.93l-97.1,142.89c-7.84,11.54.34,27.22,14.2,27.22h123.72c9.51,0,17.23-7.79,17.23-17.39h0c0-9.6-7.71-17.39-17.23-17.39Z"/>
    <g>
      <path class="cls-2" d="m1195.99,17.92c-7.5,0-13.58,6.08-13.58,13.58s6.08,13.58,13.58,13.58,13.58-6.08,13.58-13.58-6.08-13.58-13.58-13.58Zm0,24.8c-6.19,0-11.21-5.02-11.21-11.21s5.02-11.21,11.21-11.21,11.21,5.02,11.21,11.21-5.02,11.21-11.21,11.21Z"/>
      <path class="cls-2" d="m1199.54,32.48c.46-.22.88-.52,1.24-.88.92-.92,1.39-2.19,1.29-3.48-.22-2.35-2.21-4.14-4.57-4.12h-5.72c-.26,0-.47.21-.47.47v13.11c0,.26.21.47.47.47h2.34c.26,0,.47-.21.47-.47v-4.68h1.64l2.45,4.89c.08.16.24.26.42.26h2.67c.16,0,.32-.08.4-.23.09-.14.09-.32.01-.46l-2.64-4.89Zm-1.91-2.38h-3.04v-3.28h3.04c.9,0,1.64.73,1.64,1.64s-.73,1.64-1.64,1.64Z"/>
    </g>
  </g>
</svg>